<svg width="52" height="34" viewBox="0 0 52 34" fill="none" xmlns="http://www.w3.org/2000/svg">
<path d="M26.2825 0.269531V33.7103C40.5119 33.6134 52 26.1643 52 16.9899C52 7.8155 40.5119 0.36643 26.2825 0.269531Z" fill="#FFBB54"/>
<path d="M26.2825 0.269412C26.1883 0.268739 26.0942 0.268066 26 0.268066C11.6409 0.268066 0 7.75482 0 16.9898C0 26.2247 11.6409 33.7115 26 33.7115C26.0942 33.7115 26.1883 33.7108 26.2825 33.7102C38.1996 33.5944 47.8149 26.1527 47.8149 16.9898C47.8149 7.82682 38.1996 0.385152 26.2825 0.269412Z" fill="#FFD45A"/>
<path d="M36.3058 14.9846L26.1329 23.3455H36.5841C38.3764 21.8765 39.4447 20.0247 39.4447 18.0127V17.0033C39.4447 15.893 38.0322 14.9846 36.3058 14.9846Z" fill="#B74147"/>
<path d="M15.6942 14.9846C13.9678 14.9846 12.5553 15.893 12.5553 17.0033V18.0127C12.5553 20.0247 13.6236 21.8765 15.4159 23.3455L34.9865 22.2473C35.8266 20.9957 36.3058 19.551 36.3058 18.0127V17.0035L15.6942 14.9846Z" fill="#FF3C1F"/>
<path d="M34.9865 22.2471L26.1329 26.6586C30.3755 26.6324 34.1474 25.3424 36.5841 23.3453C36.1018 22.9503 35.5672 22.5822 34.9865 22.2471Z" fill="#FA4087"/>
<path d="M34.9865 22.2471C33.2413 24.8506 29.9351 26.6183 26.1329 26.6587C26.089 26.6594 26.044 26.6594 26 26.6594C21.703 26.6594 17.8778 25.3634 15.4159 23.3453C17.8778 21.3279 21.703 20.0312 26 20.0312C29.4548 20.0312 32.6052 20.8697 34.9865 22.2471Z" fill="#FA71A3"/>
<path d="M33.167 14.9846L31.5976 18.0127H34.7364C35.5996 18.0127 36.3058 17.5585 36.3058 17.0033V14.9846H33.167Z" fill="#FFF7DF"/>
<path d="M33.167 14.9846V17.0033C33.167 17.5585 32.4608 18.0127 31.5976 18.0127H17.2636C16.4004 18.0127 15.6942 17.5585 15.6942 17.0033V14.9846H33.167Z" fill="white"/>
<path d="M26.7847 29.1832H25.2153C24.7818 29.1832 24.4306 28.9572 24.4306 28.6785C24.4306 28.3998 24.7818 28.1738 25.2153 28.1738H26.7847C27.2182 28.1738 27.5694 28.3998 27.5694 28.6785C27.5694 28.9572 27.2182 29.1832 26.7847 29.1832Z" fill="#FFBB54"/>
<path d="M34.7364 7.91895C33.8733 7.91895 33.167 8.37316 33.167 8.9283V11.9564C33.167 12.5115 33.8733 12.9657 34.7364 12.9657C35.5996 12.9657 36.3059 12.5115 36.3059 11.9564V8.9283C36.3059 8.37316 35.5996 7.91895 34.7364 7.91895Z" fill="#474867"/>
<path d="M17.2636 7.91968C16.4004 7.91968 15.6942 8.37389 15.6942 8.92904V11.9571C15.6942 12.5123 16.4004 12.9665 17.2636 12.9665C18.1267 12.9665 18.833 12.5123 18.833 11.9571V8.92904C18.833 8.37389 18.1267 7.91968 17.2636 7.91968Z" fill="#474867"/>
</svg>
